<?xml version="1.0" encoding="UTF-8" standalone="no"?>
<svg
   xmlns:dc="http://purl.org/dc/elements/1.1/"
   xmlns:cc="http://creativecommons.org/ns#"
   xmlns:rdf="http://www.w3.org/1999/02/22-rdf-syntax-ns#"
   xmlns:svg="http://www.w3.org/2000/svg"
   xmlns="http://www.w3.org/2000/svg"
   xmlns:sodipodi="http://sodipodi.sourceforge.net/DTD/sodipodi-0.dtd"
   xmlns:inkscape="http://www.inkscape.org/namespaces/inkscape"
   inkscape:version="1.0 (4035a4fb49, 2020-05-01)"
   height="489.504"
   width="489.504"
   sodipodi:docname="writing.svg"
   xml:space="preserve"
   viewBox="0 0 734.256 734.256"
   y="0px"
   x="0px"
   id="Capa_1"
   version="1.1"><metadata
   id="metadata47"><rdf:RDF><cc:Work
       rdf:about=""><dc:format>image/svg+xml</dc:format><dc:type
         rdf:resource="http://purl.org/dc/dcmitype/StillImage" /><dc:title></dc:title></cc:Work></rdf:RDF></metadata><defs
   id="defs45" /><sodipodi:namedview
   inkscape:current-layer="Capa_1"
   inkscape:window-maximized="0"
   inkscape:window-y="54"
   inkscape:window-x="1050"
   inkscape:cy="244.752"
   inkscape:cx="79.115694"
   inkscape:zoom="1.2829313"
   scale-x="1.5"
   showgrid="false"
   id="namedview43"
   inkscape:window-height="1440"
   inkscape:window-width="2560"
   inkscape:pageshadow="2"
   inkscape:pageopacity="0"
   guidetolerance="10"
   gridtolerance="10"
   objecttolerance="10"
   borderopacity="1"
   bordercolor="#666666"
   pagecolor="#ffffff" />
<g
   transform="translate(122.376,122.376)"
   id="g10">
	<path
   id="path2"
   d="M 473.98,67.332 418.298,11.65 406.649,0 395.001,11.649 365.217,41.434 70.19,336.461 l -2.144,2.144 -1.241,2.766 -45.241,100.924 -17.688,39.46 39.461,-17.689 100.923,-45.242 2.765,-1.24 2.144,-2.144 L 473.98,90.629 485.628,78.981 Z M 438.938,102.374 396.01,59.452 384.367,71.095 427.294,114.017 137.52,403.792 36.597,449.034 78.237,356.145 113.619,391.288 125.232,379.6 87.663,342.285 376.865,53.083 406.649,23.298 462.331,78.98 Z" />
	<g
   id="XMLID_712_">
		<rect
   id="rect4"
   height="16"
   width="290"
   y="473.504"
   x="36.631001" />
	</g>
	<g
   id="XMLID_747_">
		<rect
   id="rect7"
   height="16"
   width="23"
   y="473.504"
   x="349.63101" />
	</g>
</g>
<g
   id="g12">
</g>
<g
   id="g14">
</g>
<g
   id="g16">
</g>
<g
   id="g18">
</g>
<g
   id="g20">
</g>
<g
   id="g22">
</g>
<g
   id="g24">
</g>
<g
   id="g26">
</g>
<g
   id="g28">
</g>
<g
   id="g30">
</g>
<g
   id="g32">
</g>
<g
   id="g34">
</g>
<g
   id="g36">
</g>
<g
   id="g38">
</g>
<g
   id="g40">
</g>
</svg>
